<?xml version="1.0" encoding="UTF-8" standalone="no"?>
<svg
   version="1.1"
   width="68.941429"
   height="84"
   id="svg206"
   sodipodi:docname="6efc7615239408b7532453ea08fbf579.svg"
   xmlns:inkscape="http://www.inkscape.org/namespaces/inkscape"
   xmlns:sodipodi="http://sodipodi.sourceforge.net/DTD/sodipodi-0.dtd"
   xmlns="http://www.w3.org/2000/svg"
   xmlns:svg="http://www.w3.org/2000/svg">
  <defs
     id="defs210" />
  <sodipodi:namedview
     id="namedview208"
     pagecolor="#ffffff"
     bordercolor="#666666"
     borderopacity="1.0"
     inkscape:pageshadow="2"
     inkscape:pageopacity="0.0"
     inkscape:pagecheckerboard="0" />
  <path
     d="M 0.56642822,0 C 23.006428,0 45.446428,0 68.566428,0 c 0,27.72 0,55.44 0,84 -22.44,0 -44.88,0 -67.99999978,0 0,-27.72 0,-55.44 0,-84 z"
     fill="#c8ab99"
     id="path2" />
  <path
     d="m 28.566428,4 c 1.656416,0 3.312799,-0.031093 4.96875,-0.070312 1.165313,-0.018047 2.330625,-0.036094 3.53125,-0.054687 1.165313,-0.023203 2.330625,-0.046406 3.53125,-0.070312 C 43.566428,4 43.566428,4 45.566428,6 c 0.66,-0.66 1.32,-1.32 2,-2 2.125,0.375 2.125,0.375 4,1 -0.02063,1.134375 -0.04125,2.26875 -0.0625,3.4375 -0.353275,3.378257 -0.353275,3.378257 1.0625,4.5625 0,-2.97 0,-5.94 0,-9 3,0 6,0 9,0 -0.33,13.53 -0.66,27.06 -1,41 -3.96,0 -7.92,0 -12,0 0,-9.57 0,-19.14 0,-29 -9.9,0 -19.8,0 -30,0 0.09697,5.481372 0.199722,10.961994 0.317383,16.442871 0.03826,1.864191 0.07312,3.728454 0.104492,5.592774 0.04571,2.681092 0.103693,5.361682 0.164063,8.04248 0.01155,0.832432 0.0231,1.664864 0.035,2.522522 0.105026,5.478149 0.105026,5.478149 2.379058,10.399353 1.999836,-0.791179 1.999836,-0.791179 4,-2 0.33,-0.99 0.66,-1.98 1,-3 -1.485,-0.495 -1.485,-0.495 -3,-1 3.644892,-1.822446 8.205038,-1.03138 12.234375,-0.960938 4.011208,0.147872 4.011208,0.147872 7.765625,-1.039062 0.511262,-2.840243 0.511262,-2.840243 0.6875,-6.1875 0.08637,-1.12793 0.172734,-2.255859 0.261719,-3.417969 C 44.564705,38.115205 44.213809,35.207702 43.566428,32 c -0.958763,3.728524 -0.829418,6.267617 0,10 -0.33,0.33 -0.66,0.66 -1,1 -0.144375,1.155 -0.28875,2.31 -0.4375,3.5 -0.278438,1.7325 -0.278438,1.7325 -0.5625,3.5 -2.4601,1.23005 -4.131728,1.13314 -6.875,1.125 -0.863672,0.0026 -1.727344,0.0052 -2.617187,0.0078 C 29.759769,51.010239 27.783537,50.649664 25.566428,50 c 0.66,-2.31 1.32,-4.62 2,-7 -0.99,0 -1.98,0 -3,0 0.66,-1.32 1.32,-2.64 2,-4 1.65,0 3.3,0 5,0 0,0.99 0,1.98 0,3 -0.66,0 -1.32,0 -2,0 0.33,1.65 0.66,3.3 1,5 0.99,0 1.98,0 3,0 -0.33,-3.63 -0.66,-7.26 -1,-11 -2.981424,-0.745356 -5.986497,-1.3973 -9,-2 -0.33,4.95 -0.66,9.9 -1,15 -1.485,-0.495 -1.485,-0.495 -3,-1 -0.403353,-8.126827 -0.531616,-15.06477 5.1875,-21.4375 3.583345,-1.990747 6.745741,-2.883953 10.8125,-2.5625 3.903057,1.247584 6.995493,3.027896 9.9375,5.875 2.795798,5.591595 2.920872,13.004434 2.0625,19.125 -2.375,3.0625 -2.375,3.0625 -5,5 -0.66,0.66 -1.32,1.32 -2,2 0.66,0.66 1.32,1.32 2,2 0.99,0 1.98,0 3,0 0.66,-0.99 1.32,-1.98 2,-3 0.66,0 1.32,0 2,0 0.6875,2.8125 0.6875,2.8125 1,6 -0.99,0.99 -1.98,1.98 -3,3 2.31,1.98 4.62,3.96 7,6 4.637685,-3.643896 6.073699,-8.630949 8,-14 0.33,0 0.66,0 1,0 -0.313229,7.360884 -3.566944,12.543537 -8.71875,17.730469 C 48.7634,78.744842 39.578235,83.659485 31.503928,83.1875 23.392756,81.392687 14.092048,76.513474 8.9492412,69.929687 8.5341622,69.251641 8.1190842,68.573594 7.6914282,67.875 7.2608812,67.191797 6.8303342,66.508594 6.3867412,65.804687 6.1160372,65.209141 5.8453342,64.613594 5.5664282,64 c 0.33,-0.66 0.66,-1.32 1,-2 0.839056,1.120739 1.671078,2.246745 2.5,3.375 0.464063,0.626484 0.928125,1.252969 1.4062498,1.898437 C 11.566428,69 11.566428,69 11.566428,71 c 1.32,0.33 2.64,0.66 4,1 0.103125,-0.763125 0.20625,-1.52625 0.3125,-2.3125 0.73114,-2.858094 1.457019,-3.844929 3.6875,-5.6875 -0.639375,-0.721875 -1.27875,-1.44375 -1.9375,-2.1875 -2.170842,-2.960239 -2.499851,-4.275847 -3.0625,-7.8125 -0.937526,-3.021485 -1.964531,-6.010816 -3,-9 -0.804375,0.02063 -1.6087498,0.04125 -2.4374998,0.0625 C 6.5664282,45 6.5664282,45 5.5664282,44 c -0.08868,-2.957053 -0.115203,-5.890651 -0.09766,-8.847656 0.0014,-0.886427 0.0028,-1.772854 0.0043,-2.686142 0.0056,-2.842935 0.01817,-5.685791 0.03087,-8.528702 0.005,-1.922525 0.0096,-3.845051 0.01367,-5.767578 C 5.5286512,13.446585 5.5459262,8.7233054 5.5664282,4 c 4.333333,0 8.6666668,0 12.9999998,0 3.707366,-1.2357884 6.18228,-0.6247179 10,0 z"
     fill="#9eaeb0"
     id="path4" />
  <path
     d="M 0.56642822,0 C 23.006428,0 45.446428,0 68.566428,0 c 0,27.72 0,55.44 0,84 -22.44,0 -44.88,0 -67.99999978,0 0,-27.72 0,-55.44 0,-84 z M 2.5664282,1 c -0.0825,8.683125 -0.165,17.36625 -0.25,26.3125 -0.036416,2.719036 -0.072832,5.438071 -0.1103516,8.239502 -0.011697,2.187085 -0.021886,4.374179 -0.030273,6.561279 -0.020464,1.109682 -0.040928,2.219363 -0.062012,3.362671 -0.00409,9.275307 1.945002,18.424276 7.784668,25.899048 C 16.430874,77.739132 25.608671,83 34.878928,83 c 11.21076,-3.040206 20.602185,-7.324618 26.625,-17.625 2.61234,-4.905887 3.188706,-9.475195 3.176025,-14.991455 -1.81e-4,-1.674069 -1.81e-4,-1.674069 -3.66e-4,-3.381958 -0.0051,-1.161969 -0.01023,-2.323938 -0.0155,-3.521118 -10e-4,-1.076166 -0.002,-2.152332 -0.0031,-3.261109 -0.0052,-4.010631 -0.01918,-8.021246 -0.0321,-12.03186 C 64.608303,19.215625 64.587678,10.24375 64.566428,1 c -20.46,0 -40.92,0 -61.9999998,0 z"
     fill="#f5f2ef"
     id="path6" />
  <path
     d="m 28.566428,4 c 1.656416,0 3.312799,-0.031093 4.96875,-0.070312 1.165313,-0.018047 2.330625,-0.036094 3.53125,-0.054687 1.165313,-0.023203 2.330625,-0.046406 3.53125,-0.070312 C 43.566428,4 43.566428,4 45.566428,6 c 0.66,-0.66 1.32,-1.32 2,-2 2.125,0.375 2.125,0.375 4,1 -0.02063,1.134375 -0.04125,2.26875 -0.0625,3.4375 -0.353275,3.378257 -0.353275,3.378257 1.0625,4.5625 0,-2.97 0,-5.94 0,-9 3,0 6,0 9,0 -0.33,13.53 -0.66,27.06 -1,41 -3.96,0 -7.92,0 -12,0 0,-9.57 0,-19.14 0,-29 -9.287507,0.03922 -9.287507,0.03922 -18.574951,0.09009 C 21.800283,16.107342 13.721542,15.771912 5.5664282,15 c 0,-3.63 0,-7.26 0,-11 4.333333,0 8.6666668,0 12.9999998,0 3.707366,-1.2357884 6.18228,-0.6247179 10,0 z"
     fill="#f9d0ba"
     id="path8" />
  <path
     d="m 18.566428,16 c 9.9,0 19.8,0 30,0 0,9.57 0,19.14 0,29 1.98,0 3.96,0 6,0 0,0.99 0,1.98 0,3 -0.99,0 -1.98,0 -3,0 0,0.66 0,1.32 0,2 1.32,0 2.64,0 4,0 -0.66,1.32 -1.32,2.64 -2,4 0,-0.66 0,-1.32 0,-2 -0.99,0 -1.98,0 -3,0 -1.460908,1.535488 -1.460908,1.535488 -2.6875,3.5 -0.655488,0.974531 -0.655488,0.974531 -1.324219,1.96875 -0.326133,0.505313 -0.652265,1.010625 -0.988281,1.53125 -1.875,-0.3125 -1.875,-0.3125 -4,-1 -0.66,-0.99 -1.32,-1.98 -2,-3 0.78375,-0.433125 1.5675,-0.86625 2.375,-1.3125 2.841984,-1.579702 2.841984,-1.579702 4.625,-4.6875 0.707889,-6.443875 0.334862,-12.950584 -2,-19 -4.010875,-3.63777 -7.60599,-4.905368 -13,-5 -3.537196,1.002444 -6.370762,2.370763 -9,5 -2.297438,5.998865 -2.207286,11.631703 -2,18 0.66,0.33 1.32,0.66 2,1 -0.0116,-0.747656 -0.0232,-1.495313 -0.03516,-2.265625 -0.01354,-1.477266 -0.01354,-1.477266 -0.02734,-2.984375 -0.0116,-0.974531 -0.0232,-1.949063 -0.03516,-2.953125 0.0857,-2.454462 0.390596,-4.458564 1.097656,-6.796875 5.625,-0.25 5.625,-0.25 9,2 0.730469,2.820312 0.730469,2.820312 1.1875,6.125 0.158555,1.095703 0.317109,2.191406 0.480469,3.320312 0.10957,0.843047 0.21914,1.686094 0.332031,2.554688 -1.65,-0.33 -3.3,-0.66 -5,-1 0,-1.65 0,-3.3 0,-5 0.66,0 1.32,0 2,0 0,-0.99 0,-1.98 0,-3 -2.020454,0.601837 -4.02111,1.273061 -6,2 -0.33,0.66 -0.66,1.32 -1,2 0.99,0 1.98,0 3,0 -0.875,4.75 -0.875,4.75 -2,7 5.28,0 10.56,0 16,0 0,-2.31 0,-4.62 0,-7 0.285204,-1.675574 0.599557,-3.348172 1,-5 -0.99,-0.66 -1.98,-1.32 -3,-2 1.32,0 2.64,0 4,0 -0.33,-1.98 -0.66,-3.96 -1,-6 0.66,0.33 1.32,0.66 2,1 1.356247,6.534645 1.40864,13.459884 0,20 -3.046811,2.031207 -3.601183,2.246599 -7.011719,2.195312 -0.757324,-0.0064 -1.514648,-0.01289 -2.294922,-0.01953 -0.785683,-0.01676 -1.571367,-0.03352 -2.380859,-0.05078 -0.797285,-0.009 -1.59457,-0.01805 -2.416016,-0.02734 C 28.497289,53.074116 26.53182,53.038245 24.566428,53 c 0.66,0.33 1.32,0.66 2,1 -0.33,1.32 -0.66,2.64 -1,4 -1.98,0.495 -1.98,0.495 -4,1 -2.604844,-2.535742 -3.222829,-4.517748 -3.340576,-8.03418 4.73e-4,-1.629309 0.01731,-3.258668 0.04761,-4.887695 0.0042,-0.859986 0.0085,-1.719972 0.01286,-2.606018 0.01676,-2.741024 0.05441,-5.481306 0.0926,-8.222107 0.01505,-1.860666 0.02874,-3.721344 0.04102,-5.582031 C 18.450429,25.111466 18.509153,20.55656 18.566428,16 Z"
     fill="#f8f5ee"
     id="path10" />
  <path
     d="m 44.566428,29 c 3.773495,5.660242 3.91069,13.351968 3,20 -2.644501,3.672919 -4.627497,5.205714 -9,6 -1.830741,0.115767 -3.665645,0.174901 -5.5,0.1875 -0.938437,0.01418 -1.876875,0.02836 -2.84375,0.04297 -2.716193,-0.235671 -4.3354,-0.845623 -6.65625,-2.23047 3.644892,-1.822446 8.205037,-1.03138 12.234375,-0.960938 4.011208,0.147872 4.011208,0.147872 7.765625,-1.039062 0.511262,-2.840243 0.511262,-2.840243 0.6875,-6.1875 0.08637,-1.12793 0.172735,-2.255859 0.261719,-3.417969 C 44.564705,38.115205 44.21381,35.207702 43.566428,32 c -0.958763,3.728524 -0.829418,6.267617 0,10 -0.33,0.33 -0.66,0.66 -1,1 -0.144375,1.155 -0.28875,2.31 -0.4375,3.5 -0.185625,1.155 -0.37125,2.31 -0.5625,3.5 -2.460099,1.23005 -4.131728,1.13314 -6.875,1.125 -0.863672,0.0026 -1.727344,0.0052 -2.617188,0.0078 C 29.759768,51.010239 27.783537,50.649664 25.566428,50 c 0.99,-3.465 0.99,-3.465 2,-7 -0.99,0 -1.98,0 -3,0 0.66,-1.32 1.32,-2.64 2,-4 1.65,0 3.3,0 5,0 0,0.99 0,1.98 0,3 -0.66,0 -1.32,0 -2,0 0.33,1.65 0.66,3.3 1,5 0.99,0 1.98,0 3,0 -0.33,-3.63 -0.66,-7.26 -1,-11 -2.981424,-0.745356 -5.986498,-1.3973 -9,-2 -0.33,4.95 -0.66,9.9 -1,15 -0.99,-0.33 -1.98,-0.66 -3,-1 -0.350548,-7.062886 -0.241421,-12.628931 3,-19 6.927818,-6.927818 14.488436,-5.939376 22,0 z"
     fill="#f2f8f4"
     id="path12" />
  <path
     d="m 5.5664282,15 c 4.29,0 8.5799998,0 12.9999998,0 0,9.9 0,19.8 0,30 -0.66,0 -1.32,0 -2,0 0.20625,0.9075 0.4125,1.815 0.625,2.75 0.387724,3.360279 0.17912,4.490758 -1.625,7.25 -2.189757,-3.284637 -2.998065,-6.206963 -4,-10 -0.804375,0.02063 -1.6087498,0.04125 -2.4374998,0.0625 C 6.5664282,45 6.5664282,45 5.5664282,44 5.4786722,41.854412 5.459476,39.705956 5.468772,37.558594 c 0.00322,-1.305176 0.00645,-2.610352 0.00977,-3.955078 0.00836,-1.388673 0.016821,-2.777345 0.025391,-4.166016 0.00501,-1.392577 0.00958,-2.785155 0.013672,-4.177734 C 5.5294338,21.839825 5.5473699,18.419907 5.5664282,15 Z"
     fill="#68a3b2"
     id="path14" />
  <path
     d="m 48.566428,15 c 3.96,0 7.92,0 12,0 0,9.9 0,19.8 0,30 -3.96,0 -7.92,0 -12,0 0,-9.9 0,-19.8 0,-30 z"
     fill="#2e8047"
     id="path16" />
  <path
     d="m 62.566428,56 c 0.33,0 0.66,0 1,0 -0.313229,7.360884 -3.566943,12.543537 -8.71875,17.730469 C 48.7634,78.744842 39.578235,83.659485 31.503928,83.1875 23.392755,81.392687 14.092048,76.513474 8.9492412,69.929688 8.5341622,69.251641 8.1190842,68.573594 7.6914282,67.875 7.2608812,67.191797 6.8303342,66.508594 6.3867412,65.804687 6.1160372,65.209141 5.8453342,64.613594 5.5664282,64 c 0.33,-0.66 0.66,-1.32 1,-2 0.839056,1.120739 1.671078,2.246746 2.5,3.375 0.696094,0.939727 0.696094,0.939727 1.4062498,1.898438 C 11.566428,69 11.566428,69 11.566428,71 c 1.32,0.33 2.64,0.66 4,1 0.33,-0.66 0.66,-1.32 1,-2 1.333333,-1.333333 2.666667,-2.666667 4,-4 0.33,-0.66 0.66,-1.32 1,-2 0.66,0.33 1.32,0.66 2,1 -1.65,2.64 -3.3,5.28 -5,8 0.99,0 1.98,0 3,0 0.309375,-0.94875 0.61875,-1.8975 0.9375,-2.875 1.0625,-3.125 1.0625,-3.125 2.0625,-5.125 0.66,0 1.32,0 2,0 -1.109407,3.486708 -2.263377,6.774842 -4,10 0.99,0 1.98,0 3,0 0.121172,-0.638086 0.242344,-1.276172 0.367188,-1.933594 0.167578,-0.826289 0.335156,-1.652578 0.507812,-2.503906 0.162422,-0.823711 0.324844,-1.647422 0.492188,-2.496094 0.208828,-0.681914 0.417656,-1.363828 0.632812,-2.066406 0.66,-0.33 1.32,-0.66 2,-1 -0.33,3.63 -0.66,7.26 -1,11 0.66,0 1.32,0 2,0 -0.04125,-1.27875 -0.0825,-2.5575 -0.125,-3.875 -0.07031,-2.179687 -0.07031,-2.179687 0.125,-4.125 0.66,-0.66 1.32,-1.32 2,-2 0,3.96 0,7.92 0,12 1.7325,-0.45375 3.465,-0.9075 5.25,-1.375 0.974531,-0.255234 1.949063,-0.510469 2.953125,-0.773438 2.455248,-0.747547 4.553049,-1.6228 6.796875,-2.851562 -0.309375,-0.7425 -0.61875,-1.485 -0.9375,-2.25 -0.871992,-2.256922 -1.53917,-4.395015 -2.0625,-6.75 1.70884,1.623398 3.374467,3.293191 5,5 0,0.66 0,1.32 0,2 2.835389,0.12945 2.835389,0.12945 6,-1 3.547062,-4.027694 5.586759,-8.86094 7,-14 z"
     fill="#cab2a4"
     id="path18" />
  <path
     d="m 38.566428,4 c 2.375,-0.125 2.375,-0.125 5,0 0.66,0.66 1.32,1.32 2,2 0.66,-0.66 1.32,-1.32 2,-2 2.125,0.375 2.125,0.375 4,1 -0.02063,1.134375 -0.04125,2.26875 -0.0625,3.4375 -0.353275,3.378257 -0.353275,3.378257 1.0625,4.5625 0,-2.97 0,-5.94 0,-9 3,0 6,0 9,0 0,3.63 0,7.26 0,11 -9.620368,0.910604 -19.154457,1.124538 -28.8125,1.0625 -1.386066,-0.005 -2.772134,-0.0096 -4.158203,-0.01367 C 25.252578,16.03718 21.909528,16.020824 18.566428,16 c 0,-0.33 0,-0.66 0,-1 3.96,-0.66 7.92,-1.32 12,-2 0,-1.98 0,-3.96 0,-6 0.66,-0.33 1.32,-0.66 2,-1 0.66,1.98 1.32,3.96 2,6 0.99,0 1.98,0 3,0 0.33,-2.64 0.66,-5.28 1,-8 z"
     fill="#e4c5af"
     id="path20" />
  <path
     d="m 42.566428,30 c 0.66,0.33 1.32,0.66 2,1 1.356247,6.534645 1.408641,13.459884 0,20 -3.04681,2.031207 -3.601183,2.246599 -7.011718,2.195312 -0.757325,-0.0064 -1.514649,-0.01289 -2.294922,-0.01953 -0.785684,-0.01676 -1.571368,-0.03352 -2.38086,-0.05078 -0.797285,-0.009 -1.59457,-0.01805 -2.416016,-0.02734 C 28.497289,53.074116 26.53182,53.038245 24.566428,53 c 0.66,0.33 1.32,0.66 2,1 -0.33,1.32 -0.66,2.64 -1,4 -1.32,0.33 -2.64,0.66 -4,1 -2.743607,-2.612959 -3.239992,-4.760489 -3.398437,-8.40625 -0.0079,-1.697916 3.9e-4,-3.395972 0.02344,-5.09375 -0.0116,-0.854648 -0.0232,-1.709297 -0.03516,-2.589844 0.02931,-6.261734 0.02931,-6.261734 1.933594,-9.503906 0.487266,-0.464062 0.974532,-0.928125 1.476563,-1.40625 -0.163711,0.705117 -0.327422,1.410234 -0.496094,2.136719 -0.520904,2.959868 -0.602573,5.673894 -0.566406,8.675781 0.009,0.97582 0.01805,1.951641 0.02734,2.957031 0.0116,0.736055 0.0232,1.47211 0.03516,2.230469 0.66,0.33 1.32,0.66 2,1 -0.0116,-0.747656 -0.0232,-1.495313 -0.03516,-2.265625 -0.01354,-1.477266 -0.01354,-1.477266 -0.02734,-2.984375 -0.0116,-0.974531 -0.0232,-1.949062 -0.03516,-2.953125 0.0857,-2.454462 0.390599,-4.458564 1.09766,-6.796875 5.625,-0.25 5.625,-0.25 9,2 0.730469,2.820312 0.730469,2.820312 1.1875,6.125 0.158555,1.095703 0.31711,2.191406 0.480469,3.320313 0.10957,0.843046 0.219141,1.686093 0.332031,2.554687 -1.65,-0.33 -3.3,-0.66 -5,-1 0,-1.65 0,-3.3 0,-5 0.66,0 1.32,0 2,0 0,-0.99 0,-1.98 0,-3 -2.020454,0.601838 -4.02111,1.273061 -6,2 -0.33,0.66 -0.66,1.32 -1,2 0.99,0 1.98,0 3,0 -0.875,4.75 -0.875,4.75 -2,7 5.28,0 10.56,0 16,0 0,-2.31 0,-4.62 0,-7 0.285204,-1.675574 0.599557,-3.348172 1,-5 -0.99,-0.66 -1.98,-1.32 -3,-2 1.32,0 2.64,0 4,0 -0.33,-1.98 -0.66,-3.96 -1,-6 z"
     fill="#dfeccd"
     id="path22" />
  <path
     d="m 60.566428,15 c 0.33,0 0.66,0 1,0 0.07464,5.389374 0.128835,10.778442 0.164795,16.168213 0.01501,1.830131 0.03542,3.660227 0.06152,5.490234 0.03675,2.643889 0.05349,5.287298 0.06665,7.931397 0.01548,0.806626 0.03097,1.613251 0.04692,2.44432 0.0026,8.83037 -2.249291,15.546015 -8.33989,21.965836 -3.367204,-1.393326 -4.985952,-2.978929 -7,-6 0.99,-0.66 1.98,-1.32 3,-2 -0.20625,-1.093125 -0.4125,-2.18625 -0.625,-3.3125 C 48.566428,54 48.566428,54 50.566428,51 c 1.32,0.33 2.64,0.66 4,1 0.33,-0.66 0.66,-1.32 1,-2 -1.32,0 -2.64,0 -4,0 -0.33,-1.32 -0.66,-2.64 -1,-4 1.32,0.33 2.64,0.66 4,1 0,-0.66 0,-1.32 0,-2 1.98,0 3.96,0 6,0 0,-9.9 0,-19.8 0,-30 z"
     fill="#a8b350"
     id="path24" />
  <path
     d="m 47.566428,55 c 0.66,0 1.32,0 2,0 0.6875,2.8125 0.6875,2.8125 1,6 -1.4375,1.875 -1.4375,1.875 -3,3 1.65,1.98 3.3,3.96 5,6 -0.99,0.33 -1.98,0.66 -3,1 -1.32,-1.65 -2.64,-3.3 -4,-5 0.773438,1.144688 0.773438,1.144688 1.5625,2.3125 0.474375,0.886875 0.94875,1.77375 1.4375,2.6875 -0.33,0.99 -0.66,1.98 -1,3 -3.5625,1.6875 -3.5625,1.6875 -7,3 -0.505599,-1.43554 -1.004275,-2.87352 -1.5,-4.3125 -0.417656,-1.200762 -0.417656,-1.200762 -0.84375,-2.425781 C 37.566428,68 37.566428,68 37.566428,65 c -1.286127,1.059789 -1.286127,1.059789 -1.097656,3.503906 0.0116,1.009336 0.0232,2.018672 0.03516,3.058594 0.009,1.011914 0.01805,2.023828 0.02734,3.066406 0.0116,0.782461 0.0232,1.564922 0.03516,2.371094 -0.66,0 -1.32,0 -2,0 0,-4.95 0,-9.9 0,-15 3.96,-0.66 7.92,-1.32 12,-2 0.33,-1.65 0.66,-3.3 1,-5 z"
     fill="#abd3d5"
     id="path26" />
  <path
     d="m 11.566428,43 c 1.996937,2.995405 2.683733,5.476331 3.503907,8.941406 1.124112,4.664624 2.373397,8.368135 5.496093,12.058594 -1.65,1.98 -3.3,3.96 -5,6 -5.384759,-4.786453 -9.2669184,-10.669186 -9.9999998,-18 -0.06519,-2.672797 -0.045334,-5.325277 0,-8 2.97,0.495 2.97,0.495 5.9999998,1 0,-0.66 0,-1.32 0,-2 z"
     fill="#d5c73d"
     id="path28" />
  <path
     d="M 0.56642822,0 C 21.686428,0 42.806428,0 64.566428,0 c 0,0.33 0,0.66 0,1 -20.46,0 -40.92,0 -61.9999998,0 0.12375,8.724375 0.2475,17.44875 0.375,26.4375 0.033999,2.737244 0.067998,5.474487 0.1030273,8.294678 0.035236,2.19215 0.071161,4.38429 0.1079102,6.576416 0.01136,1.119913 0.02272,2.239826 0.034424,3.393677 C 3.3038313,52.092326 3.9408374,57.814199 5.5664282,64 3.1536543,62.375343 2.0241845,61.465166 0.56642822,59 -0.16183262,54.539782 -0.01423952,50.114075 0.07814697,45.605469 0.08318197,44.45067 0.08821777,43.295872 0.09340577,42.106079 0.11953111,37.799633 0.18933818,33.493541 0.25392822,29.1875 0.35705322,19.555625 0.46017822,9.92375 0.56642822,0 Z"
     fill="#f8e6dd"
     id="path30" />
  <path
     d="m 41.878928,26.875 c 2.921969,2.310394 4.402671,3.985682 5.3125,7.625 1.400907,13.07513 1.400907,13.07513 -1.875,17.625 -4.076882,2.779692 -7.367514,3.028966 -12.25,3.0625 -0.938437,0.01418 -1.876875,0.02836 -2.84375,0.04297 -2.716193,-0.23567 -4.3354,-0.845622 -6.65625,-2.230469 3.644892,-1.822446 8.205037,-1.03138 12.234375,-0.960938 4.011208,0.147871 4.011208,0.147871 7.765625,-1.039063 0.510117,-2.908332 0.510117,-2.908332 0.6875,-6.3125 0.08637,-1.151133 0.172735,-2.302266 0.261719,-3.488281 0.04303,-2.710736 0.03351,-4.691772 -0.949219,-7.199219 -0.66,-0.33 -1.32,-0.66 -2,-1 -0.33,-0.99 -0.66,-1.98 -1,-3 -0.831445,-0.04898 -1.66289,-0.09797 -2.519531,-0.148438 -1.08668,-0.07477 -2.173359,-0.149531 -3.292969,-0.226562 -1.078945,-0.06961 -2.15789,-0.139219 -3.269531,-0.210938 C 28.566428,29 28.566428,29 25.566428,27 c 4.722488,-4.722488 10.901504,-3.187828 16.3125,-0.125 z"
     fill="#a3a56e"
     id="path32" />
  <path
     d="m 33.566428,35 c 0.99,0 1.98,0 3,0 0.02706,1.770749 0.04642,3.541617 0.0625,5.3125 0.0116,0.986133 0.0232,1.972266 0.03516,2.988281 C 36.566428,46 36.566428,46 35.566428,49 c 1.65,0 3.3,0 5,0 -0.33,-0.86625 -0.66,-1.7325 -1,-2.625 -0.987313,-3.332183 -1.164209,-5.926595 -1,-9.375 1.65,0.33 3.3,0.66 5,1 -0.144375,0.680625 -0.28875,1.36125 -0.4375,2.0625 -0.423905,2.21373 -0.73881,4.448734 -1,6.6875 -0.185625,1.0725 -0.37125,2.145 -0.5625,3.25 -2.460099,1.23005 -4.131728,1.13314 -6.875,1.125 -0.863672,0.0026 -1.727344,0.0052 -2.617187,0.0078 C 29.759769,51.010239 27.783537,50.649664 25.566428,50 c 0.66,-2.31 1.32,-4.62 2,-7 -0.99,0 -1.98,0 -3,0 0.66,-1.32 1.32,-2.64 2,-4 1.65,0 3.3,0 5,0 0,0.99 0,1.98 0,3 -0.66,0 -1.32,0 -2,0 0.33,1.65 0.66,3.3 1,5 0.99,0 1.98,0 3,0 0,-3.96 0,-7.92 0,-12 z"
     fill="#77a5af"
     id="path34" />
  <path
     d="m 64.566428,0 c 1.32,0 2.64,0 4,0 0.0507,6.6202467 0.08573,13.240443 0.109864,19.86084 0.01006,2.252298 0.02371,4.504582 0.04102,6.756836 0.02425,3.236849 0.03561,6.473526 0.04443,9.710449 0.01032,1.007422 0.02065,2.014845 0.03128,3.052795 1.51e-4,0.940674 3.02e-4,1.881347 4.57e-4,2.850525 0.0044,0.826068 0.0089,1.652135 0.01346,2.503235 C 68.542861,47.221978 67.812133,48.849334 66.566428,51 65.697834,44.916751 65.364138,38.952961 65.250022,32.8125 65.229241,31.86939 65.20846,30.926279 65.187049,29.95459 65.122157,26.969794 65.062952,23.984917 65.003928,21 64.960685,18.964836 64.917069,16.929679 64.873069,14.894531 64.766539,9.9297684 64.665105,4.9649249 64.566428,0 Z"
     fill="#fcf7f2"
     id="path36" />
  <path
     d="m 5.5664282,4 c 3.63,0 7.2599998,0 10.9999998,0 1.683989,4.2099725 2.240599,5.7895257 2,10 1.65,0 3.3,0 5,0 0,0.33 0,0.66 0,1 -5.94,0 -11.88,0 -17.9999998,0 0,-3.63 0,-7.26 0,-11 z"
     fill="#eedbcb"
     id="path38" />
  <path
     d="m 18.566428,16 c 6.93,0.495 6.93,0.495 14,1 0,0.66 0,1.32 0,2 -0.99,0 -1.98,0 -3,0 -0.226875,1.0725 -0.45375,2.145 -0.6875,3.25 -1.489352,4.255291 -2.815315,5.105787 -6.3125,7.75 -1.809791,3.116629 -1.809791,3.116629 -3,6 -0.33,0 -0.66,0 -1,0 0,-6.6 0,-13.2 0,-20 z"
     fill="#f9f9f8"
     id="path40" />
  <path
     d="m 7.5664282,17 c 2.9699998,0 5.9399998,0 8.9999998,0 0.25,3.3125 0.25,3.3125 0,7 -1.9375,1.75 -1.9375,1.75 -4,3 -1.105147,3.315443 -1.321076,6.204101 -1.5625,9.6875 -0.08379,1.179492 -0.167578,2.358984 -0.253906,3.574219 -0.06059,0.903633 -0.121172,1.807265 -0.183594,2.738281 -0.9899998,0 -1.9799998,0 -2.9999998,0 0,-8.58 0,-17.16 0,-26 z"
     fill="#26a4d5"
     id="path42" />
  <path
     d="m 12.566428,29 c 1.32,0 2.64,0 4,0 0.06059,0.903633 0.121172,1.807266 0.183594,2.738281 0.08379,1.179492 0.167578,2.358985 0.253906,3.574219 0.08121,1.171758 0.162422,2.343516 0.246094,3.550781 0.203143,3.162629 0.203143,3.162629 1.316406,6.136719 -0.66,0 -1.32,0 -2,0 0.20625,0.9075 0.4125,1.815 0.625,2.75 0.387725,3.360279 0.17912,4.490758 -1.625,7.25 -2.189758,-3.284637 -2.998065,-6.206963 -4,-10 -1.6499998,0 -3.2999998,0 -4.9999998,0 0,-0.66 0,-1.32 0,-2 1.32,0 2.64,0 3.9999998,0 -0.0232,-0.59168 -0.04641,-1.183359 -0.07031,-1.792969 C 10.392314,36.66198 10.429345,33.140599 12.566428,29 Z"
     fill="#5f825e"
     id="path44" />
  <path
     d="m 48.566428,15 c 0.33,0 0.66,0 1,0 0.33,2.97 0.66,5.94 1,9 0.66,0 1.32,0 2,0 4.273141,6.810319 4.273141,6.810319 4,12 0.927457,2.737746 0.927457,2.737746 2,5 -0.66,0 -1.32,0 -2,0 -0.33,0.99 -0.66,1.98 -1,3 -0.99,-0.33 -1.98,-0.66 -3,-1 0.0116,-0.638086 0.0232,-1.276172 0.03516,-1.933594 0.009,-0.826289 0.01805,-1.652578 0.02734,-2.503906 0.0174,-1.235566 0.0174,-1.235566 0.03516,-2.496094 C 52.799102,34.008361 52.799102,34.008361 51.566428,33 c 0,0.99 0,1.98 0,3 -0.66,0 -1.32,0 -2,0 0,2.97 0,5.94 0,9 -0.33,0 -0.66,0 -1,0 0,-9.9 0,-19.8 0,-30 z"
     fill="#489669"
     id="path46" />
  <path
     d="m 47.566428,4 c 1.98,0.495 1.98,0.495 4,1 -0.02063,1.134375 -0.04125,2.26875 -0.0625,3.4375 -0.353275,3.378257 -0.353275,3.378257 1.0625,4.5625 0,-2.97 0,-5.94 0,-9 3,0 6,0 9,0 0.02689,1.4790689 0.04635,2.9582748 0.0625,4.4375 0.0116,0.8237109 0.0232,1.647422 0.03516,2.496094 C 61.566428,13 61.566428,13 60.566428,14 c -1.788376,0.125245 -3.582282,0.175737 -5.375,0.1875 -0.977109,0.01418 -1.954219,0.02836 -2.960937,0.04297 C 49.566428,14 49.566428,14 46.566428,12 c 0.33,-0.66 0.66,-1.32 1,-2 0.66,0.33 1.32,0.66 2,1 0,-0.66 0,-1.32 0,-2 -0.99,-0.33 -1.98,-0.66 -3,-1 0.33,-1.32 0.66,-2.64 1,-4 z"
     fill="#e2a78c"
     id="path48" />
  <path
     d="m 3.5664282,2 c 1.65,0 3.3,0 5,0 -1.32,0.33 -2.64,0.66 -4,1 0.069609,5.867907 0.157915,11.73515 0.2624512,17.602539 0.032949,1.989833 0.061071,3.979753 0.083984,5.969727 C 4.6915309,48.086244 4.6915309,48.086244 13.261741,67.230469 14.566428,69 14.566428,69 15.566428,72 c 0.66,0.33 1.32,0.66 2,1 C 13.290041,72.524846 11.332913,70.121163 8.5664282,67 3.0479703,59.437669 3.2867275,50.804876 3.3711157,41.84375 c 0.00283,-1.142875 0.00566,-2.28575 0.00857,-3.463257 0.011137,-3.62694 0.03623,-7.253628 0.061737,-10.880493 0.010038,-2.468746 0.019163,-4.937497 0.027344,-7.40625 C 3.490746,14.062415 3.5241587,8.0312254 3.5664282,2 Z"
     fill="#f6ddc0"
     id="path50" />
  <path
     d="m 56.566428,46 c 0.99,0 1.98,0 3,0 0.516836,7.551542 0.159416,14.439934 -4,21 -2.140625,1.277344 -2.140625,1.277344 -4,2 -1.65,-1.98 -3.3,-3.96 -5,-6 2.333334,-2.333333 4.666667,-4.666667 7,-7 1.32,0 2.64,0 4,0 -0.33,-0.66 -0.66,-1.32 -1,-2 -0.134154,-2.672362 -0.04319,-5.322505 0,-8 z"
     fill="#f6e626"
     id="path52" />
  <path
     d="m 23.566428,34 c 5.625,-0.25 5.625,-0.25 9,2 0.730469,2.820312 0.730469,2.820312 1.1875,6.125 0.158555,1.095703 0.317109,2.191406 0.480469,3.320313 0.10957,0.843046 0.21914,1.686093 0.332031,2.554687 -1.65,-0.33 -3.3,-0.66 -5,-1 0,-1.65 0,-3.3 0,-5 0.66,0 1.32,0 2,0 0,-0.99 0,-1.98 0,-3 -2.020454,0.601838 -4.02111,1.273061 -6,2 -0.33,0.66 -0.66,1.32 -1,2 0.99,0 1.98,0 3,0 -0.510324,3.776397 -1.207669,5.447226 -4,8 -0.195618,-2.082587 -0.381193,-4.166119 -0.5625,-6.25 C 22.899514,43.589844 22.7951,42.429687 22.687522,41.234375 22.584447,38.481285 22.704293,36.580018 23.566428,34 Z"
     fill="#e3f5e7"
     id="path54" />
  <path
     d="m 46.566428,34 c 2,2 2,2 2.195313,4.164062 -0.0232,0.81211 -0.04641,1.624219 -0.07031,2.460938 -0.01805,0.817266 -0.03609,1.634531 -0.05469,2.476562 -0.0348,0.939727 -0.0348,0.939727 -0.07031,1.898438 1.98,0 3.96,0 6,0 0,0.99 0,1.98 0,3 -0.99,0 -1.98,0 -3,0 0,0.66 0,1.32 0,2 1.32,0 2.64,0 4,0 -0.66,1.32 -1.32,2.64 -2,4 0,-0.66 0,-1.32 0,-2 -0.99,0 -1.98,0 -3,0 -1.460908,1.535488 -1.460908,1.535488 -2.6875,3.5 -0.655488,0.974531 -0.655488,0.974531 -1.324219,1.96875 -0.326132,0.505312 -0.652265,1.010625 -0.988281,1.53125 -1.875,-0.3125 -1.875,-0.3125 -4,-1 -0.66,-0.99 -1.32,-1.98 -2,-3 0.78375,-0.433125 1.5675,-0.86625 2.375,-1.3125 2.841984,-1.579702 2.841984,-1.579702 4.625,-4.6875 0.142211,-2.602455 0.18803,-5.091177 0.125,-7.6875 -0.009,-0.701895 -0.01805,-1.403789 -0.02734,-2.126953 C 46.640565,37.456885 46.604695,35.728399 46.566428,34 Z"
     fill="#cfe490"
     id="path56" />
  <path
     d="m 24.566428,27 c 1.945313,0.242187 1.945313,0.242187 4.125,0.875 0.724453,0.203672 1.448906,0.407344 2.195313,0.617187 0.554297,0.167579 1.108593,0.335157 1.679687,0.507813 -0.33,1.65 -0.66,3.3 -1,5 -2.64,0 -5.28,0 -8,0 -0.33,4.95 -0.66,9.9 -1,15 -0.99,-0.33 -1.98,-0.66 -3,-1 -0.352604,-7.104315 -0.06108,-12.524635 3,-19 0.66,-0.66 1.32,-1.32 2,-2 z"
     fill="#d8d0cd"
     id="path58" />
  <path
     d="m 16.566428,45 c 0.66,0 1.32,0 2,0 0.07348,1.013203 0.07348,1.013203 0.148438,2.046875 0.07476,0.892031 0.149531,1.784062 0.226562,2.703125 0.06961,0.881719 0.139219,1.763438 0.210938,2.671875 0.412563,2.568789 1.125672,4.336535 2.414062,6.578125 1.423125,-0.03094 1.423125,-0.03094 2.875,-0.0625 3.125,0.0625 3.125,0.0625 5.125,1.0625 0,0.66 0,1.32 0,2 -3.088097,1.764627 -4.233121,2 -8,2 -0.268125,0.78375 -0.53625,1.5675 -0.8125,2.375 -1.1875,2.625 -1.1875,2.625 -4.1875,4.625 -0.33,-0.66 -0.66,-1.32 -1,-2 1.32,-1.65 2.64,-3.3 4,-5 -0.665156,-0.67418 -1.330312,-1.348359 -2.015625,-2.042969 -2.549817,-3.79963 -2.237818,-5.780497 -1.734375,-10.269531 0.128906,-1.254258 0.257813,-2.508516 0.390625,-3.800781 C 16.325647,46.934102 16.444241,45.981484 16.566428,45 Z"
     fill="#bab996"
     id="path60" />
  <path
     d="m 20.191428,1.8125 c 1.593281,-0.018369 1.593281,-0.018369 3.21875,-0.037109 1.013203,-0.00193 2.026406,-0.00387 3.070313,-0.00586 0.927641,-0.00411 1.855283,-0.00822 2.811035,-0.012451 C 31.566428,2 31.566428,2 33.566428,4 c -1.65,0.66 -3.3,1.32 -5,2 0,-0.66 0,-1.32 0,-2 -3.3,0 -6.6,0 -10,0 -0.33,0.99 -0.66,1.98 -1,3 -0.33,-0.66 -0.66,-1.32 -1,-2 -3.63,-0.33 -7.2599998,-0.66 -10.9999998,-1 0,13.86 0,27.72 0,42 -0.33,0 -0.66,0 -1,0 0,-14.19 0,-28.38 0,-43 C 9.8208722,1.686389 14.797162,1.8157972 20.191428,1.8125 Z"
     fill="#faeade"
     id="path62" />
  <path
     d="m 49.566428,17 c 2.97,0 5.94,0 9,0 0,4.62 0,9.24 0,14 -1.32,-0.33 -2.64,-0.66 -4,-1 -1.25,-3.0625 -1.25,-3.0625 -2,-6 -0.99,0.33 -1.98,0.66 -3,1 0,-2.64 0,-5.28 0,-8 z"
     fill="#0f894b"
     id="path64" />
  <path
     d="m 23.566428,16 c 7.92,0 15.84,0 24,0 -2,2 -2,2 -4.164063,2.195312 -1.218164,-0.0348 -1.218164,-0.0348 -2.460937,-0.07031 -0.817266,-0.01805 -1.634531,-0.03609 -2.476562,-0.05469 -0.626485,-0.0232 -1.252969,-0.04641 -1.898438,-0.07031 0.33,1.32 0.66,2.64 1,4 -0.66,0 -1.32,0 -2,0 0,0.66 0,1.32 0,2 -2.64,0.33 -5.28,0.66 -8,1 0.50604,-2.168743 0.999838,-3.999676 2,-6 0.99,0 1.98,0 3,0 0,-0.66 0,-1.32 0,-2 -2.97,0 -5.94,0 -9,0 0,-0.33 0,-0.66 0,-1 z"
     fill="#faf4e7"
     id="path66" />
  <path
     d="m 29.566428,65 c 1.65,0 3.3,0 5,0 0,3.96 0,7.92 0,12 0.66,0 1.32,0 2,0 -0.33,-3.96 -0.66,-7.92 -1,-12 0.66,0 1.32,0 2,0 0.99,3.96 1.98,7.92 3,12 -2.64,0.33 -5.28,0.66 -8,1 -0.33,-3.3 -0.66,-6.6 -1,-10 -0.33,2.64 -0.66,5.28 -1,8 -0.66,0 -1.32,0 -2,0 -0.142857,-7.428571 -0.142857,-7.428571 1,-11 z"
     fill="#539db4"
     id="path68" />
  <path
     d="m 8.5664282,50 c 0.99,1.485 0.99,1.485 1.9999998,3 3.054291,1.212849 3.054291,1.212849 6,2 0.33,3.3 0.66,6.6 1,10 -1.98,0.99 -1.98,0.99 -4,2 -3.8869875,-4.24035 -4.8912899,-9.390963 -5.1249998,-15 0.04125,-0.66 0.0825,-1.32 0.125,-2 z"
     fill="#f4e623"
     id="path70" />
  <path
     d="m 26.566428,4 c 4,0 8,0 12,0 0,2.64 0,5.28 0,8 -1.875,0.625 -1.875,0.625 -4,1 -2.138548,-2.138548 -2.42655,-3.1327531 -3,-6 -0.33,1.98 -0.66,3.96 -1,6 -0.66,0 -1.32,0 -2,0 -0.66,-2.97 -1.32,-5.94 -2,-9 z"
     fill="#c4805f"
     id="path72" />
  <path
     d="m 26.566428,54 c 4.62,0 9.24,0 14,0 -0.33,1.98 -0.66,3.96 -1,6 -0.9075,0.144375 -1.815,0.28875 -2.75,0.4375 -3.09379,0.437016 -3.09379,0.437016 -5.3125,1.3125 -2.962024,0.382197 -4.566682,-1.103599 -6.9375,-2.75 0.66,-1.65 1.32,-3.3 2,-5 z"
     fill="#9bc8cc"
     id="path74" />
  <path
     d="m 61.566428,44 c 2.69834,4.900185 2.771455,9.260294 1.277344,14.566406 C 60.907501,63.826478 58.877379,67.407541 54.566428,71 c -0.66,-0.66 -1.32,-1.32 -2,-2 0.409922,-0.496289 0.819844,-0.992578 1.242188,-1.503906 C 59.684591,60.087866 60.858943,53.253165 61.566428,44 Z"
     fill="#f6e2b8"
     id="path76" />
  <path
     d="m 28.566428,65 c 1.374325,3.817568 0.679751,7.072553 0,11 0.66,0 1.32,0 2,0 -0.04125,-1.27875 -0.0825,-2.5575 -0.125,-3.875 -0.07031,-2.179688 -0.07031,-2.179688 0.125,-4.125 0.66,-0.66 1.32,-1.32 2,-2 0,3.96 0,7.92 0,12 0.99,0.33 1.98,0.66 3,1 -4.317746,-0.50797 -8.033021,-1.196828 -12,-3 0.66,-0.33 1.32,-0.66 2,-1 0.650539,-2.086116 0.650539,-2.086116 1.0625,-4.5 0.843567,-4.406066 0.843567,-4.406066 1.9375,-5.5 z"
     fill="#abd8dd"
     id="path78" />
  <path
     d="m 49.566428,59 c 0,0.99 0,1.98 0,3 -0.66,0.66 -1.32,1.32 -2,2 1.65,1.98 3.3,3.96 5,6 -0.99,0.33 -1.98,0.66 -3,1 -1.32,-1.65 -2.64,-3.3 -4,-5 0.773438,1.144688 0.773438,1.144688 1.5625,2.3125 0.474375,0.886875 0.94875,1.77375 1.4375,2.6875 -0.33,0.99 -0.66,1.98 -1,3 -0.66,0 -1.32,0 -2,0 -0.529733,-1.622121 -1.048531,-3.247816 -1.5625,-4.875 C 43.713889,68.220078 43.42385,67.315156 43.125022,66.382812 42.566428,64 42.566428,64 43.566428,62 c 1.975229,-1.04808 3.974815,-2.052041 6,-3 z"
     fill="#82a284"
     id="path80" />
  <path
     d="m 13.566428,33 c 0.99,0.33 1.98,0.66 3,1 0.227865,1.985677 0.455729,3.971354 0.683594,5.957031 0.288114,2.236933 0.288114,2.236933 1.316406,5.042969 -0.66,0 -1.32,0 -2,0 0.309375,1.423125 0.309375,1.423125 0.625,2.875 0.12375,1.03125 0.2475,2.0625 0.375,3.125 -0.66,0.66 -1.32,1.32 -2,2 -0.09088,-0.957129 -0.09088,-0.957129 -0.183594,-1.933594 C 15.299045,50.240117 15.215256,49.413828 15.128928,48.5625 15.047717,47.738789 14.966506,46.915078 14.882834,46.066406 14.77712,44.01338 14.77712,44.01338 13.566428,43 c -0.07206,-1.68609 -0.08386,-3.375007 -0.0625,-5.0625 0.009,-0.919102 0.01805,-1.838203 0.02734,-2.785156 0.0116,-0.710274 0.0232,-1.420547 0.03516,-2.152344 z"
     fill="#759f78"
     id="path82" />
  <path
     d="m 47.566428,47 c 0.33,0 0.66,0 1,0 0.369231,7.384615 0.369231,7.384615 -1.5,10.5 -0.495,0.495 -0.99,0.99 -1.5,1.5 -1.875,-0.3125 -1.875,-0.3125 -4,-1 -0.66,-0.99 -1.32,-1.98 -2,-3 1.144688,-0.587812 1.144688,-0.587812 2.3125,-1.1875 2.939225,-1.982268 4.024721,-3.736359 5.6875,-6.8125 z"
     fill="#eff4e1"
     id="path84" />
  <path
     d="m 16.566428,17 c 0.33,0 0.66,0 1,0 0,8.25 0,16.5 0,25 -0.33,0 -0.66,0 -1,0 0,-4.29 0,-8.58 0,-13 -1.32,0 -2.64,0 -4,0 -0.33,1.65 -0.66,3.3 -1,5 -0.6875,-1.6875 -0.6875,-1.6875 -1,-4 1.25,-2.6875 1.25,-2.6875 3,-5 0.99,-0.33 1.98,-0.66 3,-1 0,-2.31 0,-4.62 0,-7 z"
     fill="#329eb9"
     id="path86" />
  <path
     d="m 40.785178,26.546875 c 0.587813,0.479531 1.175625,0.959063 1.78125,1.453125 -2.269552,0.221858 -4.540737,0.427055 -6.8125,0.625 -1.896855,0.174023 -1.896855,0.174023 -3.832031,0.351562 C 28.566428,29 28.566428,29 25.566428,27 c 4.205964,-4.205964 10.417124,-3.800738 15.21875,-0.453125 z"
     fill="#a46443"
     id="path88" />
  <path
     d="m 32.566428,28 c 2.64,0.33 5.28,0.66 8,1 0.66,1.65 1.32,3.3 2,5 -3.63,0 -7.26,0 -11,0 0.33,-1.98 0.66,-3.96 1,-6 z"
     fill="#dbd5d1"
     id="path90" />
  <path
     d="m 21.566428,64 c 0.66,0.33 1.32,0.66 2,1 -1.65,2.64 -3.3,5.28 -5,8 0.99,0 1.98,0 3,0 0.309375,-0.94875 0.61875,-1.8975 0.9375,-2.875 1.0625,-3.125 1.0625,-3.125 2.0625,-5.125 0.66,0 1.32,0 2,0 -2.434782,7.652174 -2.434782,7.652174 -4,10 -1.9375,0.9375 -1.9375,0.9375 -4,1 -1.75,-1.4375 -1.75,-1.4375 -3,-3 1.120478,-3.361434 2.497072,-4.575288 5,-7 0.33,-0.66 0.66,-1.32 1,-2 z"
     fill="#b5dee2"
     id="path92" />
  <path
     d="m 56.566428,46 c 0.99,0 1.98,0 3,0 0,3.63 0,7.26 0,11 -0.66,0 -1.32,0 -2,0 -0.33,0.99 -0.66,1.98 -1,3 -1.32,-0.33 -2.64,-0.66 -4,-1 0.33,-0.99 0.66,-1.98 1,-3 1.32,0 2.64,0 4,0 -0.33,-0.66 -0.66,-1.32 -1,-2 -0.134154,-2.672362 -0.04319,-5.322505 0,-8 z"
     fill="#f4e826"
     id="path94" />
  <path
     d="m 14.191428,16.875 c 0.78375,0.04125 1.5675,0.0825 2.375,0.125 0,2.31 0,4.62 0,7 -2.31,0 -4.62,0 -6.9999998,0 -0.125,-2.375 -0.125,-2.375 0,-5 1.9999998,-2 1.9999998,-2 4.6249998,-2.125 z"
     fill="#21a6da"
     id="path96" />
  <path
     d="m 55.566428,4 c 2,0 4,0 6,0 0,2.97 0,5.94 0,9 -2,0 -4,0 -6,0 0,-2.97 0,-5.94 0,-9 z"
     fill="#bc6e4c"
     id="path98" />
  <path
     d="m 6.5664282,4 c 1.65,0 3.3,0 4.9999998,0 0,2.97 0,5.94 0,9 -1.6499998,0 -3.2999998,0 -4.9999998,0 0,-2.97 0,-5.94 0,-9 z"
     fill="#c16c49"
     id="path100" />
  <path
     d="m 53.566428,33 c 0.99,0 1.98,0 3,0 0.666667,2.666667 1.333334,5.333333 2,8 -0.66,0 -1.32,0 -2,0 -0.33,0.99 -0.66,1.98 -1,3 -0.99,-0.33 -1.98,-0.66 -3,-1 -0.02689,-1.479069 -0.04635,-2.958275 -0.0625,-4.4375 -0.0116,-0.823711 -0.0232,-1.647422 -0.03516,-2.496094 C 52.566428,34 52.566428,34 53.566428,33 Z"
     fill="#58a77d"
     id="path102" />
  <path
     d="m 19.566428,4 c 0.66,0 1.32,0 2,0 0.33,0.66 0.66,1.32 1,2 0.66,-0.66 1.32,-1.32 2,-2 1,1 1,1 1.097656,2.8476563 -0.03255,2.0507812 -0.0651,4.1015627 -0.09766,6.1523437 -2,0 -4,0 -6,0 0,-2.97 0,-5.94 0,-9 z"
     fill="#b96b4b"
     id="path104" />
  <path
     d="m 18.566428,16 c 2.37717,2.37717 2.311407,3.18397 2.5625,6.4375 0.225979,2.799371 0.53903,4.86709 1.4375,7.5625 -1.4375,3.1875 -1.4375,3.1875 -3,6 -0.33,0 -0.66,0 -1,0 0,-6.6 0,-13.2 0,-20 z"
     fill="#dcfaf9"
     id="path106" />
  <path
     d="m 21.566428,32 c 0.33,0 0.66,0 1,0 0,5.61 0,11.22 0,17 -0.99,-0.33 -1.98,-0.66 -3,-1 -0.0545,-1.72881 -0.09302,-3.458127 -0.125,-5.1875 -0.0232,-0.96293 -0.04641,-1.925859 -0.07031,-2.917969 C 19.575074,36.871872 20.297682,34.7323 21.566428,32 Z"
     fill="#bbc17a"
     id="path108" />
  <path
     d="m 33.566428,18 c 0.99,1.32 1.98,2.64 3,4 -0.33,0.66 -0.66,1.32 -1,2 -2.648604,0.593556 -5.291973,0.742093 -8,1 0.50604,-2.168743 0.999838,-3.999676 2,-6 2.0625,-0.625 2.0625,-0.625 4,-1 z"
     fill="#f6ecd6"
     id="path110" />
  <path
     d="m 7.5664282,17 c 0.99,0.495 0.99,0.495 2,1 0,5.94 0,11.88 0,18 0.33,0 0.6599998,0 0.9999998,0 0,2.31 0,4.62 0,7 -0.9899998,0 -1.9799998,0 -2.9999998,0 0,-8.58 0,-17.16 0,-26 z"
     fill="#39a0c2"
     id="path112" />
  <path
     d="m 44.566428,64 c 1.70884,1.623398 3.374467,3.29319 5,5 0,0.66 0,1.32 0,2 1.65,-0.33 3.3,-0.66 5,-1 -1.140995,3.422986 -2.000856,4.147588 -5,6 -0.99,0 -1.98,0 -3,0 0.226875,-0.721875 0.45375,-1.44375 0.6875,-2.1875 0.398545,-3.586905 -0.710504,-4.886546 -2.6875,-7.8125 0,-0.66 0,-1.32 0,-2 z"
     fill="#cfe1dc"
     id="path114" />
  <path
     d="m 65.566428,43 c 2.321196,2.794032 2.980157,3.811494 3.375,7.5625 -0.423463,3.881748 -0.765109,3.927989 -3.375,6.4375 -0.872345,2.643472 -1.418282,5.270401 -2,8 -0.66,0 -1.32,0 -2,0 0.204961,-0.666445 0.409922,-1.332891 0.621094,-2.019531 C 64.138582,56.305789 65.17721,49.93883 65.566428,43 Z"
     fill="#f9ede5"
     id="path116" />
  <path
     d="m 20.566428,51 c 1.98,0.99 3.96,1.98 6,3 -0.33,1.32 -0.66,2.64 -1,4 -1.32,0.33 -2.64,0.66 -4,1 -2,-3 -2,-3 -1.625,-5.6875 0.20625,-0.763125 0.4125,-1.52625 0.625,-2.3125 z"
     fill="#f1f4ed"
     id="path118" />
  <path
     d="m 33.566428,35 c 0.99,0 1.98,0 3,0 0.05392,1.79134 0.09276,3.583139 0.125,5.375 0.0232,0.997734 0.04641,1.995469 0.07031,3.023437 C 36.566428,46 36.566428,46 34.566428,48 c -1,-1 -1,-1 -1.097656,-3.722656 0.0116,-1.102149 0.0232,-2.204297 0.03516,-3.339844 0.009,-1.104727 0.01805,-2.209453 0.02734,-3.347656 0.0116,-0.854649 0.0232,-1.709297 0.03516,-2.589844 z"
     fill="#918fa2"
     id="path120" />
  <path
     d="m 14.566428,4 c 0.99,0.33 1.98,0.66 3,1 0.33,2.64 0.66,5.28 1,8 -1.98,0 -3.96,0 -6,0 0.66,-2.97 1.32,-5.94 2,-9 z"
     fill="#c06e4d"
     id="path122" />
  <path
     d="m 41.566428,4 c 0.66,0 1.32,0 2,0 0.66,2.97 1.32,5.94 2,9 -1.98,0 -3.96,0 -6,0 0.875,-6.75 0.875,-6.75 2,-9 z"
     fill="#bc674a"
     id="path124" />
  <path
     d="m 26.566428,39 c 1.65,0 3.3,0 5,0 0,0.99 0,1.98 0,3 -0.66,0 -1.32,0 -2,0 0.33,1.98 0.66,3.96 1,6 -0.99,0 -1.98,0 -3,0 0,-1.65 0,-3.3 0,-5 -0.99,0 -1.98,0 -3,0 0.66,-1.32 1.32,-2.64 2,-4 z"
     fill="#7a8571"
     id="path126" />
  <path
     d="m 37.566428,37 c 0.33,0 0.66,0 1,0 0.335693,1.624514 0.66848,3.249629 1,4.875 0.185625,0.904922 0.37125,1.809844 0.5625,2.742187 C 40.566428,47 40.566428,47 40.566428,49 c -1.65,0 -3.3,0 -5,0 0.66,-3.96 1.32,-7.92 2,-12 z"
     fill="#c4d7db"
     id="path128" />
  <path
     d="m 47.566428,4 c 1.98,0.495 1.98,0.495 4,1 0,2.31 0,4.62 0,7 -1.32,0.33 -2.64,0.66 -4,1 0,-0.99 0,-1.98 0,-3 0.66,0.33 1.32,0.66 2,1 0,-0.66 0,-1.32 0,-2 -0.99,-0.33 -1.98,-0.66 -3,-1 0.33,-1.32 0.66,-2.64 1,-4 z"
     fill="#b66f54"
     id="path130" />
  <path
     d="m 35.566428,65 c 0.66,0 1.32,0 2,0 0.99,3.96 1.98,7.92 3,12 -1.65,0.33 -3.3,0.66 -5,1 0,-4.29 0,-8.58 0,-13 z"
     fill="#64a1b1"
     id="path132" />
  <path
     d="m 22.566428,38 c 0.66,1.32 1.32,2.64 2,4 0.99,0.33 1.98,0.66 3,1 -0.551449,4.080723 -0.913308,4.913308 -4,8 -0.33,-4.29 -0.66,-8.58 -1,-13 z"
     fill="#f2f4e0"
     id="path134" />
  <path
     d="m 38.566428,37 c 2.475,0.495 2.475,0.495 5,1 -0.33,1.65 -0.66,3.3 -1,5 -1.32,0 -2.64,0 -4,0 0,-1.98 0,-3.96 0,-6 z"
     fill="#4e8e6a"
     id="path136" />
  <path
     d="m 49.566428,61 c 2,2 2,2 4,5 0.99,-0.66 1.98,-1.32 3,-2 -0.66,1.32 -1.32,2.64 -2,4 -1.32,0 -2.64,0 -4,0 -2.25,-2.5 -2.25,-2.5 -4,-5 0.99,-0.66 1.98,-1.32 3,-2 z"
     fill="#d0d95c"
     id="path138" />
  <path
     d="m 31.566428,40 c 0.66,0 1.32,0 2,0 0.33,2.64 0.66,5.28 1,8 -1.65,-0.33 -3.3,-0.66 -5,-1 0,-1.65 0,-3.3 0,-5 0.66,0 1.32,0 2,0 0,-0.66 0,-1.32 0,-2 z"
     fill="#d2dddf"
     id="path140" />
  <path
     d="m 24.566428,27 c 1.32,0.66 2.64,1.32 4,2 -0.99,0.495 -0.99,0.495 -2,1 -0.652133,2.024633 -0.652133,2.024633 -1,4 -0.66,0 -1.32,0 -2,0 -0.33,1.32 -0.66,2.64 -1,4 -0.968912,-5.373057 -0.968912,-5.373057 -1,-8 1.4375,-2 1.4375,-2 3,-3 z"
     fill="#c8c3ae"
     id="path142" />
  <path
     d="m 39.566428,65 c 3.365915,2.724788 4.442263,6.068568 6,10 -1.32,0.33 -2.64,0.66 -4,1 -1.192874,-3.876841 -2,-6.916219 -2,-11 z"
     fill="#61a3b1"
     id="path144" />
  <path
     d="m 17.566428,60 c 1.65,0.99 3.3,1.98 5,3 -1.32,2.31 -2.64,4.62 -4,7 -0.99,0 -1.98,0 -3,0 0.7425,-1.175625 0.7425,-1.175625 1.5,-2.375 1.66538,-2.410523 1.66538,-2.410523 1.5,-4.625 -0.33,-0.99 -0.66,-1.98 -1,-3 z"
     fill="#78a087"
     id="path146" />
  <path
     d="m 51.566428,33 c 0.66,0.33 1.32,0.66 2,1 0.125,6.75 0.125,6.75 -1,9 -0.99,0 -1.98,0 -3,0 0,-2.31 0,-4.62 0,-7 0.66,0 1.32,0 2,0 0,-0.99 0,-1.98 0,-3 z"
     fill="#238454"
     id="path148" />
  <path
     d="m 34.566428,28 c 3.033334,-0.228931 5.973189,-0.348835 9,0 2.0625,1.8125 2.0625,1.8125 3,4 0,0.99 0,1.98 0,3 -0.66,0 -1.32,0 -2,0 -0.33,-0.99 -0.66,-1.98 -1,-3 -0.33,0.66 -0.66,1.32 -1,2 -0.309375,-0.959063 -0.309375,-0.959063 -0.625,-1.9375 -1.270382,-2.411751 -1.270382,-2.411751 -4.5,-2.8125 -0.94875,-0.0825 -1.8975,-0.165 -2.875,-0.25 0,-0.33 0,-0.66 0,-1 z"
     fill="#baaf9c"
     id="path150" />
  <path
     d="m 34.566428,3 c 3.96,0 7.92,0 12,0 -0.33,1.65 -0.66,3.3 -1,5 -0.66,-1.32 -1.32,-2.64 -2,-4 -0.598125,0.185625 -1.19625,0.37125 -1.8125,0.5625 C 39.566428,5 39.566428,5 36.566428,4 c 0,1.98 0,3.96 0,6 -0.33,0 -0.66,0 -1,0 -0.33,-2.31 -0.66,-4.62 -1,-7 z"
     fill="#fee2d2"
     id="path152" />
  <path
     d="m 14.566428,75 c 6.435,2.97 6.435,2.97 13,6 -4.935683,1.233921 -6.554293,0.263269 -11,-2 -1.9375,-1.6875 -1.9375,-1.6875 -3,-3 0.33,-0.33 0.66,-0.66 1,-1 z"
     fill="#fae8de"
     id="path154" />
  <path
     d="m 9.5664282,62 c 1.3199998,1.32 2.6399998,2.64 3.9999998,4 3.277735,-0.7515 3.277735,-0.7515 5,-4 0.66,0.66 1.32,1.32 2,2 -1.65,1.98 -3.3,3.96 -5,6 -4.875,-4.625 -4.875,-4.625 -5.9999998,-8 z"
     fill="#cbce61"
     id="path156" />
  <path
     d="m 47.566428,16 c 0.33,0 0.66,0 1,0 0,6.6 0,13.2 0,20 -3,-4 -3,-4 -3,-6 0.66,0 1.32,0 2,0 0,-4.62 0,-9.24 0,-14 z"
     fill="#dffbea"
     id="path158" />
  <path
     d="m 26.566428,4 c 1.32,0 2.64,0 4,0 1.159411,3.4782312 0.708209,5.4589558 0,9 -0.66,0 -1.32,0 -2,0 -0.66,-2.97 -1.32,-5.94 -2,-9 z"
     fill="#b57354"
     id="path160" />
  <path
     d="m 10.660178,1.734375 c 1.191094,0.00773 1.191094,0.00773 2.40625,0.015625 0.794063,-0.00516 1.588125,-0.010312 2.40625,-0.015625 C 17.566428,2 17.566428,2 19.566428,4 c -0.99,1.485 -0.99,1.485 -2,3 -0.33,-0.66 -0.66,-1.32 -1,-2 C 14.210436,4.5324821 14.210436,4.5324821 11.503928,4.375 10.584827,4.3002344 9.6657251,4.2254688 8.718772,4.1484375 8.0084985,4.0994531 7.2982251,4.0504687 6.5664282,4 c 2,-2 2,-2 4.0937498,-2.265625 z"
     fill="#f9e2cf"
     id="path162" />
  <path
     d="m 42.566428,64 c 5.571429,5.142857 5.571429,5.142857 6,9 -0.99,0.33 -1.98,0.66 -3,1 -0.99,-3.3 -1.98,-6.6 -3,-10 z"
     fill="#65a3ae"
     id="path164" />
  <path
     d="m 26.566428,65 c 0.33,0 0.66,0 1,0 -0.875,7.75 -0.875,7.75 -2,10 -0.99,0 -1.98,0 -3,0 1.109407,-3.486708 2.263377,-6.774842 4,-10 z"
     fill="#5aa1b8"
     id="path166" />
  <path
     d="m 14.566428,26 c 0.99,0.33 1.98,0.66 3,1 0,4.95 0,9.9 0,15 -0.33,0 -0.66,0 -1,0 0,-4.29 0,-8.58 0,-13 -0.99,0 -1.98,0 -3,0 0.33,-0.99 0.66,-1.98 1,-3 z"
     fill="#45a0af"
     id="path168" />
  <path
     d="m 23.566428,64 c 0.66,0.33 1.32,0.66 2,1 -1.32,2.64 -2.64,5.28 -4,8 -0.99,0 -1.98,0 -3,0 1.249174,-3.459252 2.675278,-6.146932 5,-9 z"
     fill="#61a1a9"
     id="path170" />
  <path
     d="m 47.566428,55 c 0.66,0 1.32,0 2,0 0.33,1.32 0.66,2.64 1,4 -2.475,1.485 -2.475,1.485 -5,3 -0.66,-0.66 -1.32,-1.32 -2,-2 0.99,0 1.98,0 3,0 0.33,-1.65 0.66,-3.3 1,-5 z"
     fill="#d4d4be"
     id="path172" />
  <path
     d="m 22.566428,45 c 0.4125,0.61875 0.825,1.2375 1.25,1.875 1.805739,2.192683 3.159054,3.052884 5.75,4.125 -2.354387,1.429449 -3.480324,2.086613 -6.25,1.625 -0.5775,-0.20625 -1.155,-0.4125 -1.75,-0.625 0.33,-2.31 0.66,-4.62 1,-7 z"
     fill="#ced2b4"
     id="path174" />
  <path
     d="m 31.566428,6 c 0.33,0 0.66,0 1,0 0.66,2.64 1.32,5.28 2,8 -1.65,0 -3.3,0 -5,0 0.875,-6.875 0.875,-6.875 2,-8 z"
     fill="#fae1cf"
     id="path176" />
  <path
     d="m 53.566428,33 c 0.99,0 1.98,0 3,0 0,1.98 0,3.96 0,6 -1.32,0 -2.64,0 -4,0 -0.04272,-1.666119 -0.04064,-3.333829 0,-5 0.33,-0.33 0.66,-0.66 1,-1 z"
     fill="#72c09c"
     id="path178" />
  <path
     d="m 46.566428,20 c 0.33,0 0.66,0 1,0 0,3.3 0,6.6 0,10 -0.66,0 -1.32,0 -2,0 0,-0.99 0,-1.98 0,-3 -0.66,-0.33 -1.32,-0.66 -2,-1 1,-2 2,-4 3,-6 z"
     fill="#effcf9"
     id="path180" />
  <path
     d="m 1.5664282,55 c 0.66,0 1.32,0 2,0 0.66,2.97 1.32,5.94 2,9 -2,-1.125 -2,-1.125 -4,-3 -0.25,-3.1875 -0.25,-3.1875 0,-6 z"
     fill="#f4e2d9"
     id="path182" />
  <path
     d="m 33.566428,18 c 0.99,1.32 1.98,2.64 3,4 -0.33,0.66 -0.66,1.32 -1,2 -1.9375,-0.375 -1.9375,-0.375 -4,-1 -0.33,-0.66 -0.66,-1.32 -1,-2 0.66,0 1.32,0 2,0 0.33,-0.99 0.66,-1.98 1,-3 z"
     fill="#ccc27f"
     id="path184" />
  <path
     d="m 11.566428,4 c 0.99,0 1.98,0 3,0 -0.66,2.97 -1.32,5.94 -2,9 -0.33,0 -0.66,0 -1,0 0,-2.97 0,-5.94 0,-9 z"
     fill="#f5bda5"
     id="path186" />
  <path
     d="m 49.566428,51 c 1.9375,0.3125 1.9375,0.3125 4,1 0.33,0.99 0.66,1.98 1,3 -1.65,0.66 -3.3,1.32 -5,2 -1,-3 -1,-3 0,-6 z"
     fill="#6e8846"
     id="path188" />
  <path
     d="m 26.566428,47 c 2.64,0.33 5.28,0.66 8,1 -0.99,1.485 -0.99,1.485 -2,3 -2.31,-0.33 -4.62,-0.66 -7,-1 0.33,-0.99 0.66,-1.98 1,-3 z"
     fill="#89b2bb"
     id="path190" />
  <path
     d="m 50.566428,27 c 1.32,0 2.64,0 4,0 0.33,1.65 0.66,3.3 1,5 -1.32,0 -2.64,0 -4,0 -0.33,-1.65 -0.66,-3.3 -1,-5 z"
     fill="#62b990"
     id="path192" />
  <path
     d="m 54.566428,22 c 0.99,0 1.98,0 3,0 0,2.97 0,5.94 0,9 -1.643501,-3.287002 -2.413216,-5.4793 -3,-9 z"
     fill="#048f4b"
     id="path194" />
  <path
     d="m 8.5664282,69 c 1.9799998,1.65 3.9599998,3.3 5.9999998,5 -3,1 -3,1 -5.9999998,0 0,-1.65 0,-3.3 0,-5 z"
     fill="#f6e9df"
     id="path196" />
  <path
     d="m 34.566428,56 c 1.32,0 2.64,0 4,0 0.33,1.32 0.66,2.64 1,4 -1.65,0.33 -3.3,0.66 -5,1 0,-1.65 0,-3.3 0,-5 z"
     fill="#99d0db"
     id="path198" />
  <path
     d="m 26.566428,39 c 1.65,0 3.3,0 5,0 0,0.99 0,1.98 0,3 -1.98,0 -3.96,0 -6,0 0.33,-0.99 0.66,-1.98 1,-3 z"
     fill="#417f5a"
     id="path200" />
  <path
     d="m 12.566428,29 c 1.32,0 2.64,0 4,0 0,1.65 0,3.3 0,5 -1.32,0 -2.64,0 -4,0 0,-1.65 0,-3.3 0,-5 z"
     fill="#519288"
     id="path202" />
  <path
     d="m 41.566428,4 c 0.66,0 1.32,0 2,0 0.33,1.65 0.66,3.3 1,5 -0.99,0.33 -1.98,0.66 -3,1 -1.125,-3.75 -1.125,-3.75 0,-6 z"
     fill="#c66d51"
     id="path204" />
</svg>
